<?xml version="1.0" encoding="UTF-8"?>
<svg version="1.1" xmlns="http://www.w3.org/2000/svg" width="200" height="100">
<path d="M0 0 C0.05410687 1.77049689 0.09284119 3.54146849 0.125 5.3125 C0.14820313 6.29863281 0.17140625 7.28476562 0.1953125 8.30078125 C0 11 0 11 -2 14 C-7.83034371 16.3495415 -13.74601675 17.41693222 -20 17 C-20 17.66 -20 18.32 -20 19 C-20.84296631 19.11593506 -21.68593262 19.23187012 -22.55444336 19.35131836 C-25.67275901 19.78221054 -28.79052314 20.21684442 -31.90795898 20.65405273 C-33.2589858 20.84273818 -34.61022386 21.02991738 -35.96166992 21.21557617 C-37.90077317 21.48222953 -39.8390741 21.75469712 -41.77734375 22.02734375 C-42.94515381 22.18968506 -44.11296387 22.35202637 -45.31616211 22.51928711 C-47.91068308 22.72022932 -47.91068308 22.72022932 -49 24 C-51.85528607 24.400383 -54.69736487 24.7518227 -57.5625 25.0625 C-58.36880859 25.15337891 -59.17511719 25.24425781 -60.00585938 25.33789062 C-62.00347377 25.56247449 -64.0016856 25.78173236 -66 26 C-66 28.97 -66 31.94 -66 35 C-63.92184167 35 -62.08916637 34.70504805 -60.04296875 34.34375 C-58.86831055 34.14072266 -58.86831055 34.14072266 -57.66992188 33.93359375 C-56.02634458 33.64651731 -54.38310811 33.35748204 -52.74023438 33.06640625 C-48.78229572 32.3856797 -45.03449573 31.80359453 -41 32 C-41 31.34 -41 30.68 -41 30 C-38.3347536 29.49118023 -35.66821581 28.99279859 -33 28.5 C-32.25621094 28.35691406 -31.51242188 28.21382812 -30.74609375 28.06640625 C-18.27826418 25.78967215 -18.27826418 25.78967215 -14 28.0625 C-12.41095875 31.14126742 -12.64226903 33.60155579 -13 37 C-14.25 39.4375 -14.25 39.4375 -16 41 C-17.32 41 -18.64 41 -20 41 C-20 41.66 -20 42.32 -20 43 C-20.60473145 43.11069824 -21.20946289 43.22139648 -21.83251953 43.33544922 C-24.59751792 43.84419198 -27.36124668 44.35953807 -30.125 44.875 C-31.07632813 45.04902344 -32.02765625 45.22304688 -33.0078125 45.40234375 C-37.82914144 46.30634293 -42.36006412 47.38384256 -47 49 C-49.45141296 49.57217133 -51.91022517 50.11344296 -54.375 50.625 C-55.62023437 50.88539062 -56.86546875 51.14578125 -58.1484375 51.4140625 C-59.08945313 51.60742188 -60.03046875 51.80078125 -61 52 C-60.01 52.66 -59.02 53.32 -58 54 C-58 54.66 -58 55.32 -58 56 C-51.565 57.485 -51.565 57.485 -45 59 C-45 59.66 -45 60.32 -45 61 C-30.41946478 61.52694388 -30.41946478 61.52694388 -16 60 C-15.01 59.01 -15.01 59.01 -14 58 C-14.061875 57.071875 -14.12375 56.14375 -14.1875 55.1875 C-14 52 -14 52 -11.9375 49.1875 C-8.41815329 46.5667099 -6.36596331 46.07659585 -2 46 C1.87138602 46.89339677 4.5989711 47.78234208 7 51 C7.328125 53.84765625 7.328125 53.84765625 7.25 57.0625 C7.23453125 58.12597656 7.2190625 59.18945312 7.203125 60.28515625 C7 63 7 63 6 65 C5.34 65 4.68 65 4 65 C3.773125 65.639375 3.54625 66.27875 3.3125 66.9375 C2 69 2 69 -0.625 69.75 C-1.40875 69.8325 -2.1925 69.915 -3 70 C-3 70.66 -3 71.32 -3 72 C-3.78246094 72.20496094 -4.56492187 72.40992187 -5.37109375 72.62109375 C-6.38300781 72.89050781 -7.39492187 73.15992187 -8.4375 73.4375 C-9.44683594 73.70433594 -10.45617187 73.97117187 -11.49609375 74.24609375 C-13.91752001 74.75978077 -13.91752001 74.75978077 -15 76 C-21.61709856 77.33469886 -28.27428096 77.14762013 -35 77.125 C-36.14984375 77.12886719 -37.2996875 77.13273437 -38.484375 77.13671875 C-45.91295123 77.12816048 -52.73860529 76.97772144 -59.8125 74.5 C-60.56144531 74.2421875 -61.31039062 73.984375 -62.08203125 73.71875 C-64 73 -64 73 -66 72 C-66 71.34 -66 70.68 -66 70 C-66.556875 69.938125 -67.11375 69.87625 -67.6875 69.8125 C-72.93379401 67.96920751 -76.6429263 62.28959417 -80 58 C-80.495 56.515 -80.495 56.515 -81 55 C-82.27875 54.9175 -83.5575 54.835 -84.875 54.75 C-88.78115299 54.24620288 -88.78115299 54.24620288 -90.5 52.3125 C-91.30724476 48.57899297 -91.46769571 45.40308714 -90.25 41.75 C-89 40 -89 40 -85 38 C-85.33 32.72 -85.66 27.44 -86 22 C-86.66 22 -87.32 22 -88 22 C-88 20.02 -88 18.04 -88 16 C-87.34 16 -86.68 16 -86 16 C-85.814375 14.824375 -85.814375 14.824375 -85.625 13.625 C-85 11 -85 11 -83 9 C-77.68781705 7.48223344 -72.39898346 7.77252893 -67 8.625 C-60.34875692 9.45640539 -53.54541168 8.21891595 -47 7 C-46.67 6.67 -46.34 6.34 -46 6 C-44.23463303 5.65499364 -42.45855638 5.36444348 -40.6796875 5.09765625 C-39.04 4.84532227 -39.04 4.84532227 -37.3671875 4.58789062 C-35.0625559 4.24116473 -32.75786948 3.8948029 -30.453125 3.54882812 C-24.82402929 2.68205285 -19.42756319 1.73235921 -14 0 C-9.50692232 -1.12326942 -4.26715261 -2.1335763 0 0 Z " fill="#32E0EC" transform="translate(186,9)"/>
<path d="M0 0 C0.88107422 -0.00773438 1.76214844 -0.01546875 2.66992188 -0.0234375 C7.53284381 -0.00886695 11.50017521 0.35592118 16.0625 2.25 C16.0625 2.91 16.0625 3.57 16.0625 4.25 C17.01125 4.518125 17.96 4.78625 18.9375 5.0625 C22.0625 6.25 22.0625 6.25 24.0625 9.25 C24.46208487 12.67017557 24.6260348 16.12293041 23.0625 19.25 C20.296875 19.8828125 20.296875 19.8828125 16.8125 20.375 C15.67296875 20.54257812 14.5334375 20.71015625 13.359375 20.8828125 C10.0625 21.25 10.0625 21.25 5.0625 21.25 C5.5575 27.685 5.5575 27.685 6.0625 34.25 C6.7225 34.25 7.3825 34.25 8.0625 34.25 C9.01604313 41.57600206 9.31122839 48.8027476 9.375 56.1875 C9.41850586 57.86102539 9.41850586 57.86102539 9.46289062 59.56835938 C9.52920843 68.2763976 7.91284822 74.97447766 3.0625 82.25 C2.4025 82.25 1.7425 82.25 1.0625 82.25 C1.0625 82.91 1.0625 83.57 1.0625 84.25 C0.4025 84.25 -0.2575 84.25 -0.9375 84.25 C-1.4325 85.735 -1.4325 85.735 -1.9375 87.25 C-7.93687651 90.13758213 -13.15014182 90.76321539 -19.75 90.6875 C-20.62495117 90.68427734 -21.49990234 90.68105469 -22.40136719 90.67773438 C-29.13703375 90.53288133 -34.89252021 89.35567769 -40.9375 86.25 C-40.9375 85.59 -40.9375 84.93 -40.9375 84.25 C-41.53046875 84.14558594 -42.1234375 84.04117188 -42.734375 83.93359375 C-45.26160372 83.1494359 -46.3605218 82.19945476 -48.1875 80.3125 C-48.70828125 79.78785156 -49.2290625 79.26320313 -49.765625 78.72265625 C-50.9375 77.25 -50.9375 77.25 -50.9375 75.25 C-51.9275 74.92 -52.9175 74.59 -53.9375 74.25 C-55.125 71.1875 -55.125 71.1875 -55.9375 68.25 C-56.5975 68.25 -57.2575 68.25 -57.9375 68.25 C-60.04325375 62.72239641 -61.31601209 58.18002267 -60.9375 52.25 C-61.5975 52.25 -62.2575 52.25 -62.9375 52.25 C-62.9375 49.28 -62.9375 46.31 -62.9375 43.25 C-62.2775 43.25 -61.6175 43.25 -60.9375 43.25 C-60.9375 42.26 -60.9375 41.27 -60.9375 40.25 C-58.39395023 38.97822512 -56.46584848 39.01053941 -53.625 38.9375 C-52.68011719 38.90011719 -51.73523437 38.86273438 -50.76171875 38.82421875 C-47.02641727 39.38735549 -45.47961159 40.4681519 -42.9375 43.25 C-42.23046875 46.484375 -42.23046875 46.484375 -42.125 50 C-42.07730469 51.17046875 -42.02960937 52.3409375 -41.98046875 53.546875 C-41.96628906 54.43890625 -41.95210937 55.3309375 -41.9375 56.25 C-41.2775 56.25 -40.6175 56.25 -39.9375 56.25 C-36.9375 62.875 -36.9375 62.875 -36.9375 66.25 C-35.6175 66.91 -34.2975 67.57 -32.9375 68.25 C-32.9375 68.91 -32.9375 69.57 -32.9375 70.25 C-30.28521188 71.32525194 -27.65381546 72.34456151 -24.9375 73.25 C-24.9375 73.91 -24.9375 74.57 -24.9375 75.25 C-20.6475 75.25 -16.3575 75.25 -11.9375 75.25 C-11.2775 72.94 -10.6175 70.63 -9.9375 68.25 C-9.2775 68.25 -8.6175 68.25 -7.9375 68.25 C-7.9375 62.64 -7.9375 57.03 -7.9375 51.25 C-8.5975 51.25 -9.2575 51.25 -9.9375 51.25 C-10.44454109 47.87601911 -10.94186536 44.50067379 -11.4375 41.125 C-11.58058594 40.17367187 -11.72367188 39.22234375 -11.87109375 38.2421875 C-12.55711337 33.53805294 -13.13021007 29.0195743 -12.9375 24.25 C-13.5975 24.25 -14.2575 24.25 -14.9375 24.25 C-15.4325 23.26 -15.4325 23.26 -15.9375 22.25 C-19.53289019 21.26983911 -23.12254052 21.03822257 -26.83203125 20.8203125 C-27.95287109 20.74683594 -29.07371094 20.67335938 -30.22851562 20.59765625 C-32.56401841 20.44998719 -34.89997294 20.30928726 -37.23632812 20.17578125 C-44.76528416 19.66665987 -51.05160656 18.87297807 -57.4375 14.5625 C-59.77311647 10.96175795 -59.40993916 8.5019524 -58.9375 4.25 C-57.68823242 2.50854492 -57.68823242 2.50854492 -55.9375 1.25 C-53.8527832 1.0012207 -53.8527832 1.0012207 -51.48828125 1.17578125 C-50.64072266 1.23056641 -49.79316406 1.28535156 -48.91992188 1.34179688 C-48.03884766 1.41462891 -47.15777344 1.48746094 -46.25 1.5625 C-45.35732422 1.62373047 -44.46464844 1.68496094 -43.54492188 1.74804688 C-41.34103414 1.90125832 -39.13925794 2.06908134 -36.9375 2.25 C-36.9375 2.91 -36.9375 3.57 -36.9375 4.25 C-29.6775 4.25 -22.4175 4.25 -14.9375 4.25 C-14.9375 3.59 -14.9375 2.93 -14.9375 2.25 C-10.07285921 -0.29862677 -5.34828579 -0.04674394 0 0 Z " fill="#32E1EC" transform="translate(74.9375,3.75)"/>
</svg>
